# xmcd CD database file
#
# Track frame offsets:
#	183
#	15193
#	27708
#	39685
#	53305
#	68255
#	82608
#	95615
#	108580
#	121755
#	134255
#	147680
#	161658
#	175028
#	189283
#	203828
#
# Disc length: 2864 seconds
#
# Revision: 4
# Processed by: cddbd v1.5.2PL0 Copyright (c) Steve Scherf et al.
# Submitted via: CDex 1.70beta2
#
DISCID=c60b2e10
DTITLE=Louis Armstrong - Swing That Music !  {1935-1939}
DYEAR=1990
DGENRE=Jazz
TTITLE0=Shoe Shine Boy   [1935]
TTITLE1=La Cucaracha   [1935]
TTITLE2=Thanks A Million   [1935]
TTITLE3=Solitude   [1935]
TTITLE4=I Hope Gabriel Likes My Music   [1935]
TTITLE5=Lyin' To Myself   [1936]
TTITLE6=Ev'ntide   [1936]
TTITLE7=Swing That Music   [1936]
TTITLE8=Mahogany Hall Stomp   [1936]
TTITLE9=Dippermouth Blues   [1936]
TTITLE10=Struttin' With Some Barbecue   [1938]
TTITLE11=Hear Me Talkin' To Ya   [1939]
TTITLE12=Save It Pretty Mama   [1939]
TTITLE13=West End Blues   [1939]
TTITLE14=Savoy Blues   [1939]
TTITLE15=My Monday Date   [1939]
EXTD=YEAR: 1990
EXTT0=
EXTT1=
EXTT2=
EXTT3=
EXTT4=
EXTT5=
EXTT6=
EXTT7=
EXTT8=
EXTT9=
EXTT10=
EXTT11=
EXTT12=
EXTT13=
EXTT14=
EXTT15=
PLAYORDER=
